[2026-03-14 19:07:38] [INFO] Jarvis Desktop launcher started.
[2026-03-14 19:07:38] [INFO] Runtime log path: C:\Jarvis\logs\runtime_2026-03-14_19-07-38.txt
[2026-03-14 19:07:38] [INFO] Launcher executable: C:\Users\anden\AppData\Local\Python\pythoncore-3.14-64\pythonw.exe
[2026-03-14 19:07:38] [INFO] Root directory: C:\Jarvis
[2026-03-14 19:07:38] [INFO] Target script: C:\Jarvis\jarvis_desktop_test.py
[2026-03-14 19:07:38] [INFO] Diagnostics script: C:\Jarvis\desktop\jarvis_diagnostics.pyw
[2026-03-14 19:07:38] [INFO] Recovery attempts allowed: 3
[2026-03-14 19:07:38] [INFO] Voice hook ready: C:\Jarvis\jarvis_voice.py
[2026-03-14 19:07:38] [INFO] Starting desktop renderer process. attempt=1
[2026-03-14 19:07:38] [INFO] Child executable: C:\Users\anden\AppData\Local\Python\pythoncore-3.14-64\pythonw.exe
[2026-03-14 19:07:39] [STDOUT] Jarvis Desktop Concept 1 - Version 1.02
[2026-03-14 19:07:39] [STDOUT] Hotkey: Ctrl + Alt + End
[2026-03-14 19:07:39] [STDERR] Traceback (most recent call last):
[2026-03-14 19:07:39] [STDERR]   File "C:\Jarvis\jarvis_desktop_test.py", line 44, in <module>
[2026-03-14 19:07:39] [STDERR]     raise SystemExit(main())
[2026-03-14 19:07:39] [STDERR]                      ~~~~^^
[2026-03-14 19:07:39] [STDERR]   File "C:\Jarvis\jarvis_desktop_test.py", line 36, in main
[2026-03-14 19:07:39] [STDERR]     raise RuntimeError("Jarvis test crash triggered intentionally")
[2026-03-14 19:07:39] [STDERR] RuntimeError: Jarvis test crash triggered intentionally
[2026-03-14 19:07:39] [INFO] Desktop renderer exited. exit_code=1
[2026-03-14 19:07:39] [WARN] Recovery attempt 1/3
[2026-03-14 19:07:40] [INFO] Starting desktop renderer process. attempt=2
[2026-03-14 19:07:40] [INFO] Child executable: C:\Users\anden\AppData\Local\Python\pythoncore-3.14-64\pythonw.exe
[2026-03-14 19:07:40] [STDOUT] Jarvis Desktop Concept 1 - Version 1.02
[2026-03-14 19:07:40] [STDOUT] Hotkey: Ctrl + Alt + End
[2026-03-14 19:07:40] [STDERR] Traceback (most recent call last):
[2026-03-14 19:07:40] [STDERR]   File "C:\Jarvis\jarvis_desktop_test.py", line 44, in <module>
[2026-03-14 19:07:40] [STDERR]     raise SystemExit(main())
[2026-03-14 19:07:40] [STDERR]                      ~~~~^^
[2026-03-14 19:07:40] [STDERR]   File "C:\Jarvis\jarvis_desktop_test.py", line 36, in main
[2026-03-14 19:07:40] [STDERR]     raise RuntimeError("Jarvis test crash triggered intentionally")
[2026-03-14 19:07:40] [STDERR] RuntimeError: Jarvis test crash triggered intentionally
[2026-03-14 19:07:40] [INFO] Desktop renderer exited. exit_code=1
[2026-03-14 19:07:40] [WARN] Recovery attempt 2/3
[2026-03-14 19:07:42] [INFO] Starting desktop renderer process. attempt=3
[2026-03-14 19:07:42] [INFO] Child executable: C:\Users\anden\AppData\Local\Python\pythoncore-3.14-64\pythonw.exe
[2026-03-14 19:07:42] [STDOUT] Jarvis Desktop Concept 1 - Version 1.02
[2026-03-14 19:07:42] [STDOUT] Hotkey: Ctrl + Alt + End
[2026-03-14 19:07:42] [STDERR] Traceback (most recent call last):
[2026-03-14 19:07:42] [STDERR]   File "C:\Jarvis\jarvis_desktop_test.py", line 44, in <module>
[2026-03-14 19:07:42] [STDERR]     raise SystemExit(main())
[2026-03-14 19:07:42] [STDERR]                      ~~~~^^
[2026-03-14 19:07:42] [STDERR]   File "C:\Jarvis\jarvis_desktop_test.py", line 36, in main
[2026-03-14 19:07:42] [STDERR]     raise RuntimeError("Jarvis test crash triggered intentionally")
[2026-03-14 19:07:42] [STDERR] RuntimeError: Jarvis test crash triggered intentionally
[2026-03-14 19:07:42] [INFO] Desktop renderer exited. exit_code=1
[2026-03-14 19:07:42] [ERROR] Crash log written: C:\Jarvis\logs\crash\crash_2026-03-14_19-07-42.txt
[2026-03-14 19:07:42] [INFO] Trying voice line 'Um..... Sir, I seem to be malfunctioning.' using voice --text --mode
[2026-03-14 19:07:50] [VOICE_STDERR] [mp3 @ 0000019073DE8DC0] Estimating duration from bitrate, this may be inaccurate
[2026-03-14 19:07:50] [VOICE_STDERR] Input #0, mp3, from 'C:/Users/anden/AppData/Local/Temp/tmp8okzcp_r.mp3':
[2026-03-14 19:07:50] [VOICE_STDERR]   Duration: 00:00:06.22, start: 0.000000, bitrate: 48 kb/s
[2026-03-14 19:07:50] [VOICE_STDERR]   Stream #0:0: Audio: mp3 (mp3float), 24000 Hz, mono, fltp, 48 kb/s
[2026-03-14 19:07:50] [INFO] Voice line completed: Um..... Sir, I seem to be malfunctioning.
[2026-03-14 19:07:50] [INFO] Failure voice step 1/3 success=True line=Um..... Sir, I seem to be malfunctioning.
[2026-03-14 19:07:51] [INFO] Trying voice line 'Attempting restart.' using voice --text --mode
[2026-03-14 19:07:57] [VOICE_STDERR] [mp3 @ 000001B03B866640] Estimating duration from bitrate, this may be inaccurate
[2026-03-14 19:07:57] [VOICE_STDERR] Input #0, mp3, from 'C:/Users/anden/AppData/Local/Temp/tmp_pwipwbd.mp3':
[2026-03-14 19:07:57] [VOICE_STDERR]   Duration: 00:00:04.22, start: 0.000000, bitrate: 48 kb/s
[2026-03-14 19:07:57] [VOICE_STDERR]   Stream #0:0: Audio: mp3 (mp3float), 24000 Hz, mono, fltp, 48 kb/s
[2026-03-14 19:07:57] [INFO] Voice line completed: Attempting restart.
[2026-03-14 19:07:57] [INFO] Failure voice step 2/3 success=True line=Attempting restart.
[2026-03-14 19:07:58] [INFO] Trying voice line 'Restart failed.' using voice --text --mode
[2026-03-14 19:08:03] [VOICE_STDERR] [mp3 @ 0000018AEDBB9100] Estimating duration from bitrate, this may be inaccurate
[2026-03-14 19:08:03] [VOICE_STDERR] Input #0, mp3, from 'C:/Users/anden/AppData/Local/Temp/tmp3jo0qner.mp3':
[2026-03-14 19:08:03] [VOICE_STDERR]   Duration: 00:00:04.15, start: 0.000000, bitrate: 48 kb/s
[2026-03-14 19:08:03] [VOICE_STDERR]   Stream #0:0: Audio: mp3 (mp3float), 24000 Hz, mono, fltp, 48 kb/s
[2026-03-14 19:08:03] [INFO] Voice line completed: Restart failed.
[2026-03-14 19:08:03] [INFO] Failure voice step 3/3 success=True line=Restart failed.
[2026-03-14 19:08:04] [INFO] Diagnostics process launched.
